<svg width="32" height="32" viewBox="0 0 32 32" fill="none" xmlns="http://www.w3.org/2000/svg">
<g clip-path="url(#clip0_30580_56660)">
<rect width="32" height="32" rx="4" fill="url(#paint0_linear_30580_56660)"/>
<mask id="mask0_30580_56660" style="mask-type:alpha" maskUnits="userSpaceOnUse" x="0" y="0" width="32" height="32">
<rect width="32" height="32" rx="4" fill="url(#paint1_linear_30580_56660)"/>
</mask>
<g mask="url(#mask0_30580_56660)">
<path d="M38.5 40C24.1 18.4 4.16667 11 -4 10L-7 33C14.1667 44.3333 52.9 61.6 38.5 40Z" fill="black"/>
</g>
<path fill-rule="evenodd" clip-rule="evenodd" d="M19 8V41.2307C19 43.4399 20.7909 45.2307 23 45.2307C25.2091 45.2307 27 43.4399 27 41.2307V8C27 5.79086 25.2091 4 23 4C20.7909 4 19 5.79086 19 8Z" fill="url(#paint2_linear_30580_56660)"/>
<path d="M19 14C19 11.7909 20.7909 10 23 10V10C25.2091 10 27 11.7909 27 14V17C27 19.2091 25.2091 21 23 21V21C20.7909 21 19 19.2091 19 17V14Z" fill="#FF5A5A"/>
<path d="M19 12C19 9.79086 20.7909 8 23 8V8C25.2091 8 27 9.79086 27 12V15C27 17.2091 25.2091 19 23 19V19C20.7909 19 19 17.2091 19 15V12Z" fill="#F5F5F5"/>
<path d="M19 10C19 7.79086 20.7909 6 23 6V6C25.2091 6 27 7.79086 27 10V13C27 15.2091 25.2091 17 23 17V17C20.7909 17 19 15.2091 19 13V10Z" fill="#FF5A5A"/>
<path d="M19 8C19 5.79086 20.7909 4 23 4V4C25.2091 4 27 5.79086 27 8V11C27 13.2091 25.2091 15 23 15V15C20.7909 15 19 13.2091 19 11V8Z" fill="#F5F5F5"/>
</g>
<defs>
<linearGradient id="paint0_linear_30580_56660" x1="16" y1="0" x2="16" y2="32" gradientUnits="userSpaceOnUse">
<stop stop-color="#0F57C7"/>
<stop offset="1" stop-color="#082F6B"/>
</linearGradient>
<linearGradient id="paint1_linear_30580_56660" x1="16" y1="0" x2="16" y2="32" gradientUnits="userSpaceOnUse">
<stop stop-color="#42A5F5"/>
<stop offset="1" stop-color="#0E49A4"/>
</linearGradient>
<linearGradient id="paint2_linear_30580_56660" x1="23" y1="4" x2="23" y2="45.2307" gradientUnits="userSpaceOnUse">
<stop stop-color="#EBEBEB"/>
<stop offset="1" stop-color="#A4A4A4"/>
</linearGradient>
<clipPath id="clip0_30580_56660">
<rect width="32" height="32" rx="4" fill="white"/>
</clipPath>
</defs>
</svg>
